<?xml version="1.0" encoding="UTF-8"?>
<svg xmlns="http://www.w3.org/2000/svg" version="1.1" viewBox="0 0 841.89 595.28">
  <defs>
    <style>
      .cls-1 {
        fill: #231f20;
      }

      .cls-2 {
        fill: #fff;
      }

      .cls-3 {
        fill: #f5ac1c;
      }
    </style>
  </defs>
  <!-- Generator: Adobe Illustrator 28.7.2, SVG Export Plug-In . SVG Version: 1.2.0 Build 154)  -->
  <g>
    <g id="P_x26_F_Logo">
      <rect x="39.92" y="39.36" width="493.5" height="493.51"/>
      <path class="cls-2" d="M201.03,327.91c0-.95,0-1.69,0-2.43,0-24.99,0-49.98,0-74.97,0-1.61.11-3.13,1.71-4.08,2.05-1.22,4.62-.3,5.26,1.99.21.77.29,1.6.29,2.4.01,26.37.01,52.74.01,79.1,0,3.96-1.08,5.05-4.99,5.05-42.97,0-85.93,0-128.9,0-4.1,0-5.11-1.01-5.11-5.06,0-26.49,0-52.99,0-79.48,0-2.77,1.09-4.3,3.19-4.51,2.16-.22,3.78,1.13,3.97,3.3.04.5.02,1,.02,1.5,0,25.05.01,50.11-.03,75.16,0,1.48.28,2.07,1.92,2.07,40.4-.04,80.8-.04,121.19-.04h1.46Z"/>
      <path class="cls-2" d="M138.77,175.64c-10.8,8.39-21.48,16.68-32.15,24.96-17.3,13.42-34.6,26.84-51.91,40.25-1.86,1.44-3.86,1.21-5.28-.56-1.35-1.69-1.04-3.68.94-5.22,6.91-5.38,13.84-10.74,20.76-16.1,17.06-13.22,34.13-26.43,51.19-39.65,4.55-3.53,9.09-7.06,13.65-10.58,2.12-1.63,3.47-1.6,5.73.15,17.47,13.51,34.93,27.02,52.39,40.53,10.88,8.42,21.76,16.86,32.66,25.27,1.36,1.05,2.37,2.2,2.02,4.09-.3,1.62-1.3,2.76-2.82,2.83-1.17.05-2.59-.42-3.54-1.13-7.03-5.33-13.95-10.79-20.92-16.2-19.82-15.37-39.66-30.73-59.48-46.1-1.04-.8-2.06-1.62-3.23-2.53Z"/>
      <g>
        <path class="cls-2" d="M366.27,313.5c-1.72.5-2.77-.07-3.72-1.32-2.71-3.58-5.53-7.09-8.61-11.02v12.38h-3.07v-18.07c1.63-.54,2.67.02,3.62,1.28,2.37,3.15,4.85,6.21,7.29,9.3.41.52.87,1.01,1.58,1.84v-12.5h2.92v18.11Z"/>
        <path class="cls-2" d="M334.94,295.15c5.43.03,9.28,3.91,9.29,9.38.01,5.44-4.08,9.48-9.51,9.4-5.35-.08-9.26-4.14-9.19-9.53.07-5.42,3.99-9.27,9.42-9.24Z"/>
        <path class="cls-2" d="M340.59,304.48c-.02-4.04-2.1-6.39-5.68-6.41-3.62-.02-5.79,2.45-5.76,6.54.03,3.96,2.28,6.43,5.78,6.36,3.55-.07,5.67-2.5,5.65-6.49Z"/>
        <path class="cls-2" d="M231.08,304.55c0-5.59,3.73-9.39,9.22-9.4,5.53,0,9.31,3.77,9.31,9.3,0,5.53-3.81,9.44-9.23,9.48-5.37.04-9.3-3.92-9.3-9.39Z"/>
        <path class="cls-2" d="M246.15,304.5c0-3.91-2.26-6.43-5.76-6.43-3.59,0-5.87,2.55-5.85,6.54.03,3.85,2.33,6.34,5.86,6.36,3.41.02,5.75-2.61,5.74-6.47Z"/>
        <path class="cls-2" d="M273.16,295.37h3.42c0,3.83-.05,7.56.02,11.3.06,3.16,2.51,4.88,5.52,3.99,1.69-.5,2.72-2.1,2.74-4.44.04-3.56,0-7.12,0-10.81h3.34c0,4.2.25,8.39-.08,12.54-.29,3.65-3.83,6.13-7.67,5.99-4.09-.15-7.1-2.75-7.26-6.63-.17-3.92-.04-7.86-.04-11.93Z"/>
        <path class="cls-2" d="M213.16,311.55c1.23-2.42,1.19-2.34,3.45-1.27.97.46,2.14.7,3.22.7,1.18,0,2.11-.66,2.33-2.01.22-1.34-.39-2.17-1.56-2.64-1.16-.46-2.36-.78-3.51-1.26-2.46-1.02-3.34-2.39-3.24-4.88.08-2.15,1.45-4.03,3.68-4.67,2.72-.78,5.29-.44,7.52,1.45-.95,2.42-.92,2.33-3.14,1.5-.99-.37-2.2-.46-3.23-.27-.59.11-1.4,1.03-1.44,1.62-.04.69.51,1.63,1.1,2.08.76.58,1.81.79,2.74,1.13,3.41,1.24,4.7,2.88,4.4,5.6-.33,2.99-2.53,5.04-5.87,5.25-2.45.15-4.64-.64-6.45-2.34Z"/>
        <path class="cls-2" d="M372.55,311.56c1.23-2.42,1.19-2.34,3.45-1.27.97.46,2.14.7,3.22.7,1.18,0,2.11-.66,2.33-2.01.22-1.34-.39-2.17-1.56-2.64-1.16-.46-2.36-.78-3.51-1.26-2.46-1.02-3.34-2.39-3.24-4.88.08-2.15,1.45-4.03,3.68-4.67,2.72-.78,5.29-.44,7.52,1.45-.95,2.42-.92,2.33-3.14,1.5-.99-.37-2.2-.46-3.23-.27-.59.11-1.4,1.03-1.44,1.62-.04.69.51,1.63,1.1,2.08.76.58,1.81.79,2.74,1.13,3.41,1.24,4.7,2.88,4.4,5.6-.33,2.99-2.53,5.04-5.87,5.25-2.45.15-4.64-.64-6.45-2.34Z"/>
        <path class="cls-2" d="M308.48,295.43v2.73h-5.29v15.39h-3.54v-15.28h-5.4c-.06-1.01-.1-1.84-.16-2.83h14.39Z"/>
        <path class="cls-2" d="M256.35,295.38h3.31v15.4h7.15v2.74h-10.46v-18.14Z"/>
        <path class="cls-2" d="M315.23,295.34h3.29v18.25h-3.29v-18.25Z"/>
        <path class="cls-1" d="M340.59,304.48c.02,3.99-2.1,6.42-5.65,6.49-3.51.07-5.75-2.4-5.78-6.36-.04-4.09,2.14-6.56,5.76-6.54,3.58.02,5.66,2.37,5.68,6.41Z"/>
        <path class="cls-1" d="M246.15,304.5c0,3.86-2.33,6.49-5.74,6.47-3.53-.02-5.83-2.51-5.86-6.36-.03-3.99,2.25-6.54,5.85-6.54,3.5,0,5.76,2.52,5.76,6.43Z"/>
      </g>
      <g>
        <path class="cls-3" d="M195.06,230.68c-.01-1.07-.51-1.43-1.46-1.42h-.58s-7.06,0-7.06,0h-2.41c-.58,0-1.13,0-1.49,0-30.32-.08-60.6,0-90.92,0h-10.16c0,.05,0,.86-.01.91h3.64c0,1.18,0,1.88,0,2.92,0,28.5,0,57-.01,85.5,0,0-.03,2.25-.4,2.85h-3.61v1.14h13.16v-1.14h-3.53c-.56-.19-.69-2.85-.69-2.85,0,0,0-20.72,0-31.43,0-1.05,0-1.79,0-3.02,4.43,0,8.62.13,12.79-.04,3.54-.14,7.13-.35,10.59-1.06,3.48-.71,10.06-3.3,10.16-3.45.68-.43,1.92-1.21,2.18-1.42,1.65-1.32,3.36-2.64,4.73-4.24,1.68-1.97,2.85-4,2.85-4l1.27-2.38c2.15-5.28,1.38-12.45,1.35-17.66h-5.6s-.06,4.11.01,5.98c.27,7.45-1.57,14.2-6.41,20.02-.35.42-1.78,1.65-2.33,2.08,0,0-6.15,2.97-9.44,3.79-6.7,1.68-13.62,1.38-20.49,1.33-1.37,0-1.66-.33-1.66-1.54.03-16.59.04-33.17,0-49.76,0-1.63,2.07-1.64,2.07-1.64,0,0,.03,0,.06,0h0s80.91,0,80.91,0c4.58.12,8.09.59,11.91.78l.12.02c.33.09,2.13.81,2.55,1.17,4.26,3.6,6.13,8.34,6.53,13.78.05.68.14,1.74.25,2.92h1.16c-.09-5.62.07-12.53,0-18.15Z"/>
        <path class="cls-3" d="M179.52,260.09s-1.12,0-1.12,0c0,2.04-.05,9.6-.05,9.6-.15,1.29-.29,2.47-1.21,3.52-1.33,1.52-3.25,1.84-3.39,1.86-.21.03-1.7.09-2.33.09-5.51.02-11.02-.04-16.52.05-1.63.03-1.96-.29-1.95-1.78.08-7.26.04-14.52.05-21.78,0-.73,0-1.45,0-2.16-.95,0-1.62,0-2.3,0-1.57-.02-2.79,0-2.79,0v2.86c0,21.97-.11,43.95-.11,65.92,0,2.1-.29,2.93-.4,3.18h-3.61v1.14h13.16v-1.14h-3.52c-.52-.17-.37-2.47-.4-3.18,0,0-.05-25.97-.05-39.67,0-2.58,0-2.28,2.68-2.28,5.26,0,10.52.01,15.77-.02.86,0,2.44.09,2.44.09.01,0,.81.19.82.2,0,0,0,0,0,.01,5.76,3.47,6.36,9.66,7.02,18.11h1.19c-1.14-10.85-2.25-23.74-3.39-34.6Z"/>
      </g>
      <g>
        <path class="cls-3" d="M213.92,259.73h11.75c6.06,0,10.14,3.38,10.14,8.78,0,6.18-4.66,9.03-10.26,9.03h-5.48v10.59h-6.14v-28.4ZM220.06,272.64h4.7c2.84,0,4.86-1.11,4.86-4s-2.14-4.04-4.74-4.04h-4.82v8.04Z"/>
        <path class="cls-3" d="M266.93,270.49l-7.5,10.14,7.67,7.5h-7.58l-3.38-3.26c-2.1,2.23-4.49,3.67-8.57,3.67-6.39,0-9.23-4.04-9.23-7.91,0-3.05,1.32-5.28,5.65-7.83-1.61-1.81-2.84-3.5-2.84-5.94,0-4.29,3.17-7.54,8.08-7.54s7.91,3.3,7.91,6.92c0,2.72-1.44,4.78-5.28,6.97l4.12,4.04,4.95-6.76h6.02ZM252.62,281.5l-5.85-5.65c-1.44,1.03-2.39,2.27-2.39,4.08s1.2,3.67,3.83,3.67c1.81,0,3.01-.58,4.41-2.1ZM246.52,266.45c0,1.44.87,2.47,2.47,4.04,2.39-1.57,2.93-2.84,2.93-4.16,0-1.53-.82-2.97-2.68-2.97-1.65,0-2.72,1.24-2.72,3.09Z"/>
        <path class="cls-3" d="M271.17,259.73h19.83v5.03h-13.81v6.97h12.94v5.03h-12.94v11.38h-6.02v-28.4Z"/>
        <path class="cls-3" d="M304.43,259.73h11.29c8.24,0,13.68,5.44,13.68,13.85s-5.28,14.55-13.97,14.55h-11.01v-28.4ZM310.58,283.19h4.62c5.44,0,7.87-4.08,7.87-9.6,0-4.66-2.27-8.9-7.83-8.9h-4.66v18.51Z"/>
        <path class="cls-3" d="M361.65,273.83c0,7.91-4.74,14.72-13.97,14.72s-13.6-6.47-13.6-14.63,5.15-14.59,13.97-14.59c8.33,0,13.6,5.81,13.6,14.51ZM340.42,273.79c0,5.56,2.43,9.77,7.46,9.77,5.48,0,7.42-4.58,7.42-9.65,0-5.4-2.23-9.6-7.5-9.6s-7.38,3.96-7.38,9.48Z"/>
        <path class="cls-3" d="M391.53,277.46c0-4.82.08-10.26.21-13.48h-.21c-1.32,5.81-4.16,15.25-6.88,24.15h-5.23c-2.1-7.79-5.03-18.55-6.27-24.24h-.21c.25,3.34.37,9.19.37,14.06v10.18h-5.61v-28.4h9.15c2.23,7.42,4.7,16.74,5.56,20.94h.04c.7-3.71,3.79-13.69,6.18-20.94h8.82v28.4h-5.94v-10.68Z"/>
        <path class="cls-3" d="M424.5,275.89h-13.6v7.21h15l-.74,5.03h-20.24v-28.4h20.16v5.03h-14.18v6.06h13.6v5.07Z"/>
        <path class="cls-3" d="M435.63,279.81c.66,2.84,2.68,4.12,5.98,4.12s4.7-1.32,4.7-3.38c0-2.35-1.36-3.34-6.22-4.45-7.75-1.81-9.65-4.66-9.65-8.49,0-4.95,3.71-8.29,10.43-8.29,7.54,0,10.55,4.04,10.96,8.2h-6.18c-.33-1.77-1.28-3.67-4.95-3.67-2.51,0-4,1.03-4,3.05s1.19,2.8,5.81,3.83c8.24,1.98,10.06,5.03,10.06,9.07,0,5.15-3.92,8.74-11.42,8.74s-11.05-3.55-11.71-8.74h6.18Z"/>
        <path class="cls-3" d="M463.78,264.76h-8.66v-5.03h23.41v5.03h-8.62v23.37h-6.14v-23.37Z"/>
        <path class="cls-3" d="M489.17,259.73v28.4h-6.14v-28.4h6.14Z"/>
        <path class="cls-3" d="M520.74,279.35c-1.11,5.32-5.11,9.19-12.24,9.19-9.03,0-13.27-6.39-13.27-14.47s4.41-14.76,13.56-14.76c7.58,0,11.25,4.41,11.95,9.19h-6.14c-.62-2.23-2.14-4.41-6.02-4.41-5.07,0-7.01,4.58-7.01,9.77,0,4.78,1.69,9.85,7.17,9.85,4.04,0,5.28-2.68,5.81-4.37h6.18Z"/>
      </g>
    </g>
  </g>
</svg>